<svg xmlns="http://www.w3.org/2000/svg" xmlns:xlink="http://www.w3.org/1999/xlink" width="1080" zoomAndPan="magnify" viewBox="0 0 810 809.999993" height="1080" preserveAspectRatio="xMidYMid meet" version="1.0"><defs><clipPath id="id1"><path d="M 47 597 L 291 597 L 291 704.304688 L 47 704.304688 Z M 47 597 " clip-rule="nonzero"/></clipPath><clipPath id="id2"><path d="M 0 105.804688 L 810 105.804688 L 810 676 L 0 676 Z M 0 105.804688 " clip-rule="nonzero"/></clipPath></defs><g clip-path="url(#id1)"><path fill="#4393b6" d="M 233.792969 689.398438 L 109.164062 680.914062 L 48.996094 704.183594 C 48.578125 703.429688 48.1875 702.652344 47.773438 701.890625 L 105.769531 666.25 L 220.792969 676.175781 L 290.804688 597.148438 L 233.792969 689.398438 " fill-opacity="1" fill-rule="nonzero"/></g><g clip-path="url(#id2)"><path fill="#4393b6" d="M 764.726562 671.007812 L 631.230469 605.652344 L 461.570312 395.398438 L 353.460938 423.941406 L 228.375 559.523438 L 179.5625 551.441406 L 109.144531 642.234375 L 34.613281 674.949219 C 12.378906 624.796875 0.00390625 569.292969 0.00390625 510.902344 C 0.00390625 287.179688 181.324219 105.832031 405 105.832031 C 628.675781 105.832031 810 287.179688 810 510.902344 C 810 569.441406 797.570312 625.0625 775.222656 675.308594 L 764.726562 671.007812 " fill-opacity="1" fill-rule="nonzero"/></g><path fill="#4393b6" d="M 444.125 524.75 L 431.507812 469.222656 L 380.195312 456.605469 L 271.6875 541.582031 L 372.625 443.140625 L 448.328125 413.691406 L 416.363281 451.546875 L 448.328125 458.28125 L 444.125 524.75 " fill-opacity="1" fill-rule="nonzero"/><path fill="#4393b6" d="M 125.367188 643.417969 L 185.503906 564.707031 L 224.851562 574.359375 L 195.898438 577.332031 L 125.367188 643.417969 " fill-opacity="1" fill-rule="nonzero"/><path fill="#4393b6" d="M 629.050781 619.351562 L 761.714844 700.425781 L 625.9375 633.910156 L 562.894531 629.054688 L 496.390625 514.027344 L 564.28125 604.796875 L 629.050781 619.351562 " fill-opacity="1" fill-rule="nonzero"/><path fill="#4393b6" d="M 555.226562 694.683594 L 482.425781 659.503906 L 431.703125 676.023438 L 367.898438 632.503906 L 385.898438 552.320312 L 381.804688 623.5 L 430.886719 660.324219 L 479.96875 643.417969 L 555.226562 694.683594 " fill-opacity="1" fill-rule="nonzero"/></svg>